<?xml version="1.0" encoding="UTF-8" standalone="no"?>
<!-- Created with Inkscape (http://www.inkscape.org/) -->

<svg
   width="512"
   height="512"
   viewBox="0 0 135.46666 135.46667"
   version="1.1"
   id="svg1"
   inkscape:version="1.3 (0e150ed6c4, 2023-07-21)"
   sodipodi:docname="Goober.svg"
   xmlns:inkscape="http://www.inkscape.org/namespaces/inkscape"
   xmlns:sodipodi="http://sodipodi.sourceforge.net/DTD/sodipodi-0.dtd"
   xmlns="http://www.w3.org/2000/svg"
   xmlns:svg="http://www.w3.org/2000/svg">
  <sodipodi:namedview
     id="namedview1"
     pagecolor="#505050"
     bordercolor="#eeeeee"
     borderopacity="1"
     inkscape:showpageshadow="0"
     inkscape:pageopacity="0"
     inkscape:pagecheckerboard="0"
     inkscape:deskcolor="#505050"
     inkscape:document-units="mm"
     showborder="true"
     inkscape:zoom="0.73139029"
     inkscape:cx="127.15509"
     inkscape:cy="265.93189"
     inkscape:window-width="1920"
     inkscape:window-height="1017"
     inkscape:window-x="1912"
     inkscape:window-y="573"
     inkscape:window-maximized="1"
     inkscape:current-layer="svg1" />
  <defs
     id="defs1">
    <inkscape:path-effect
       effect="fillet_chamfer"
       id="path-effect2-9"
       is_visible="true"
       lpeversion="1"
       nodesatellites_param="F,0,0,1,0,36.727705,0,1 @ F,0,1,1,0,36.727705,0,1 @ F,0,0,1,0,0,0,1 @ F,0,0,1,0,0,0,1"
       radius="0"
       unit="px"
       method="auto"
       mode="F"
       chamfer_steps="1"
       flexible="false"
       use_knot_distance="true"
       apply_no_radius="true"
       apply_with_radius="true"
       only_selected="false"
       hide_knots="false" />
  </defs>
  <rect
     style="fill:#0b8a8f;stroke-width:1.50083"
     id="rect5"
     width="59.18552"
     height="33.267654"
     x="-68.62587"
     y="496.25876"
     inkscape:export-filename="Export\Goober\GooberAlbedo.png"
     inkscape:export-xdpi="179.62471"
     inkscape:export-ydpi="179.62471"
     inkscape:label="Back"
     transform="matrix(0.68744476,0,0,0.69633409,93.417035,-264.77873)" />
  <g
     id="g2"
     inkscape:label="Bottom"
     transform="matrix(0.69085645,0,0,0.69633409,93.687754,-264.77873)">
    <rect
       style="fill:#0eaf9b;stroke-width:1.45406"
       id="rect3-9-5"
       width="7.7693224"
       height="26.133169"
       x="-15.119616"
       y="495.24811" />
    <rect
       style="fill:#0eaf9b;stroke-width:1.00937"
       id="rect6-9"
       width="72"
       height="12.735489"
       x="-79.350296"
       y="519.42169" />
  </g>
  <rect
     style="fill:#0eaf9b;stroke-width:1"
     id="rect7-1"
     width="10.737765"
     height="17.480083"
     x="-70.32621"
     y="526.95496"
     inkscape:label="LeftLeg"
     transform="matrix(0.68744476,0,0,0.69633409,93.417035,-264.77873)" />
  <g
     id="g1"
     inkscape:label="Top"
     transform="matrix(0.68704117,0,0,0.69633409,93.662373,-265.50224)">
    <rect
       style="fill:#ffffff;stroke-width:0.648461"
       id="rect2-9"
       width="4.7727365"
       height="8.4607563"
       x="-70.792824"
       y="502.56085" />
    <rect
       style="fill:#ffffff;stroke-width:0.789181"
       id="rect3-9"
       width="5.7715988"
       height="10.362638"
       x="-34.46846"
       y="503.51932" />
    <rect
       style="fill:#ffffff;stroke-width:0.501425"
       id="rect5-8"
       width="3.6526926"
       height="6.6101255"
       x="-48.419659"
       y="504.01151" />
    <rect
       style="fill:#ffffff;stroke-width:0.768937"
       id="rect4-7"
       width="5.6504164"
       height="10.048747"
       x="-62.813164"
       y="503.75394" />
    <rect
       style="fill:#ffffff;stroke-width:0.501425"
       id="rect11"
       width="3.6526926"
       height="6.6101255"
       x="-42.301628"
       y="504.13635" />
    <path
       id="rect1-9"
       d="M -18.717005,15.891796 A 36.201855,36.201855 45.838414 0 1 16.951248,52.619501 V 120.07135 H -55.44471 V 52.619501 a 36.727705,36.727705 135 0 1 36.727705,-36.727705 z"
       style="fill:#0eaf9b;stroke-width:1"
       inkscape:original-d="M -55.44471,15.891796 H 16.951248 V 120.07135 H -55.44471 Z"
       inkscape:path-effect="#path-effect2-9"
       transform="translate(-24.305417,385.1166)" />
    <circle
       style="fill:#2e222f;stroke-width:1"
       id="path2-0"
       cx="-68.449295"
       cy="490.70874"
       r="3.5315101" />
    <circle
       style="fill:#2e222f;stroke-width:1"
       id="circle2-6"
       cx="-43.728722"
       cy="490.70874"
       r="3.5315101" />
    <path
       id="path11-9"
       style="fill:#eaaded;stroke-width:1.20416"
       d="m -79.750095,449.34258 v 10.24149 h 72.396098 v -10.24149 z" />
    <path
       id="path15-4"
       style="fill:#eaaded;stroke-width:1"
       d="m -79.043678,430.93137 a 36.727705,36.727705 0 0 0 -0.706417,6.80476 v 3.43648 h 72.396098 v -3.43648 a 36.201855,36.201855 0 0 0 -0.557589,-6.80476 z" />
    <path
       id="path16-4"
       style="fill:#eaaded;stroke-width:1"
       d="m -69.637017,412.5201 a 36.727705,36.727705 0 0 0 -6.814054,10.24123 h 66.086405 a 36.201855,36.201855 0 0 0 -6.716386,-10.24123 z" />
    <path
       id="path14-0"
       style="fill:#eaaded;stroke-width:1.20416"
       d="m -79.750095,467.7539 v 10.2415 h 72.396098 v -10.2415 z" />
  </g>
  <rect
     style="fill:#0eaf9b;stroke-width:1"
     id="rect2"
     width="10.737765"
     height="17.480083"
     x="-26.604378"
     y="526.95496"
     inkscape:label="RightLeg"
     transform="matrix(0.68744476,0,0,0.69633409,93.417035,-264.77873)" />
</svg>
