<?xml version="1.0" encoding="UTF-8" standalone="no"?>
<!-- Created with Inkscape (http://www.inkscape.org/) -->

<svg
   width="406.40259mm"
   height="338.65475mm"
   viewBox="0 0 406.40259 338.65475"
   version="1.1"
   id="svg1"
   inkscape:version="1.3 (0e150ed6c4, 2023-07-21)"
   sodipodi:docname="Tiles.svg"
   xmlns:inkscape="http://www.inkscape.org/namespaces/inkscape"
   xmlns:sodipodi="http://sodipodi.sourceforge.net/DTD/sodipodi-0.dtd"
   xmlns="http://www.w3.org/2000/svg"
   xmlns:svg="http://www.w3.org/2000/svg">
  <sodipodi:namedview
     id="namedview1"
     pagecolor="#505050"
     bordercolor="#eeeeee"
     borderopacity="1"
     inkscape:showpageshadow="0"
     inkscape:pageopacity="0"
     inkscape:pagecheckerboard="0"
     inkscape:deskcolor="#505050"
     inkscape:document-units="mm"
     showgrid="true"
     showborder="false"
     inkscape:zoom="0.25"
     inkscape:cx="-734.00001"
     inkscape:cy="3226"
     inkscape:window-width="1920"
     inkscape:window-height="1017"
     inkscape:window-x="1912"
     inkscape:window-y="573"
     inkscape:window-maximized="1"
     inkscape:current-layer="layer1">
    <inkscape:grid
       id="grid62"
       units="px"
       originx="1408.0173"
       originy="-1919.996"
       spacingx="4.2333333"
       spacingy="4.2333333"
       empcolor="#0099e5"
       empopacity="0.30196078"
       color="#0099e5"
       opacity="0.14901961"
       empspacing="8"
       dotted="false"
       gridanglex="30"
       gridanglez="30"
       visible="true" />
  </sodipodi:namedview>
  <defs
     id="defs1">
    <inkscape:path-effect
       effect="perspective-envelope"
       up_left_point="-345.98091,529.99962"
       up_right_point="-311.33975,529.99962"
       down_left_point="-345.98091,559.99998"
       down_right_point="-311.33975,559.99998"
       id="path-effect146"
       is_visible="true"
       lpeversion="1"
       deform_type="perspective"
       horizontal_mirror="false"
       vertical_mirror="false"
       overflow_perspective="false" />
    <inkscape:path-effect
       effect="perspective-envelope"
       up_left_point="-345.98091,529.99962"
       up_right_point="-311.33975,529.99962"
       down_left_point="-345.98091,559.99998"
       down_right_point="-311.33975,559.99998"
       id="path-effect144"
       is_visible="true"
       lpeversion="1"
       deform_type="perspective"
       horizontal_mirror="false"
       vertical_mirror="false"
       overflow_perspective="false" />
    <inkscape:path-effect
       effect="perspective-envelope"
       up_left_point="-345.98091,529.99962"
       up_right_point="-311.33975,529.99962"
       down_left_point="-345.98091,559.99998"
       down_right_point="-311.33975,559.99998"
       id="path-effect142"
       is_visible="true"
       lpeversion="1"
       deform_type="perspective"
       horizontal_mirror="false"
       vertical_mirror="false"
       overflow_perspective="false" />
    <inkscape:path-effect
       effect="perspective-envelope"
       up_left_point="-345.98091,529.99962"
       up_right_point="-311.33975,529.99962"
       down_left_point="-345.98091,559.99998"
       down_right_point="-311.33975,559.99998"
       id="path-effect140"
       is_visible="true"
       lpeversion="1"
       deform_type="perspective"
       horizontal_mirror="false"
       vertical_mirror="false"
       overflow_perspective="false" />
    <inkscape:path-effect
       effect="perspective-envelope"
       up_left_point="-345.98091,529.99962"
       up_right_point="-311.33975,529.99962"
       down_left_point="-345.98091,559.99998"
       down_right_point="-311.33975,559.99998"
       id="path-effect138"
       is_visible="true"
       lpeversion="1"
       deform_type="perspective"
       horizontal_mirror="false"
       vertical_mirror="false"
       overflow_perspective="false" />
    <inkscape:path-effect
       effect="perspective-envelope"
       up_left_point="-345.98091,529.99962"
       up_right_point="-311.33975,529.99962"
       down_left_point="-345.98091,559.99998"
       down_right_point="-311.33975,559.99998"
       id="path-effect85"
       is_visible="true"
       lpeversion="1"
       deform_type="perspective"
       horizontal_mirror="false"
       vertical_mirror="false"
       overflow_perspective="false" />
  </defs>
  <g
     inkscape:label="Layer 1"
     inkscape:groupmode="layer"
     id="layer1"
     transform="translate(372.53791,-507.99895)">
    <path
       id="path65"
       style="fill:#2e2230;fill-opacity:0.501961;fill-rule:evenodd;stroke:#2e222f;stroke-width:0;stroke-linecap:round"
       inkscape:transform-center-x="-4.2275398e-06"
       inkscape:transform-center-y="-9.8217276e-06"
       d="m -152.38786,575.72222 -16.9336,16.93287 16.9336,16.93284 h 33.86615 l 16.93358,-16.93284 -16.93358,-16.93287 z m 2.25727,2.25814 h 29.35162 l 14.67529,14.67473 -14.67529,14.67528 h -29.35162 l -14.67529,-14.67528 z"
       inkscape:export-filename="..\..\..\..\Godot\flat-art-game\resources\tiles\outline_tilemap.svg"
       inkscape:export-xdpi="192"
       inkscape:export-ydpi="192" />
    <path
       style="opacity:0.5;fill:#2e222f;fill-rule:evenodd;stroke:#2e222f;stroke-width:0;stroke-linecap:round"
       d="m -319.99999,530.00058 -2.30917,1.6e-4 6.62931,11.4823 -4.5e-4,2.6e-4 2.03088,3.5176 -7.50535,12.99979 -15.01127,1.9e-4 -7.50575,-13.00033 4.93971,-8.55528 -0.006,-0.005 3.71826,-6.44065 -2.30083,1.2e-4 -8.66026,15.00023 8.66019,14.9999 17.32071,1.1e-4 8.66026,-15.00023 z"
       id="path84"
       inkscape:path-effect="#path-effect85"
       inkscape:original-d="m -319.99999,530.00058 -2.30917,1.6e-4 6.62931,11.4823 -4.5e-4,2.6e-4 2.03088,3.5176 -7.50535,12.99979 -15.01127,1.9e-4 -7.50575,-13.00033 4.93971,-8.55528 -0.006,-0.005 3.71826,-6.44065 -2.30083,1.2e-4 -8.66026,15.00023 8.66019,14.9999 17.32071,1.1e-4 8.66026,-15.00023 z"
       transform="matrix(1.9552693,0,0,1.1288752,303.95297,-90.303436)" />
    <path
       style="opacity:0.5;fill:#2e222f;fill-rule:evenodd;stroke:#2e222f;stroke-width:0;stroke-linecap:round"
       d="m -355.64254,541.89053 -16.88617,16.92627 2e-5,5.7e-4 16.98118,16.89464 33.86639,-0.0316 16.88413,-16.92627 -2.26464,-2.25194 -2.25031,2.25636 10e-4,5.8e-4 -14.63431,14.6695 -29.3508,0.028 -0.001,-10e-4 -1.44287,-1.43593 -13.27468,-13.20618 9.6315,-9.65392 -0.01,-0.006 7.24958,-7.26771 z"
       id="path3" />
    <path
       id="path27"
       style="opacity:0.5;fill:#2e222f;fill-rule:evenodd;stroke:#2e222f;stroke-width:0;stroke-linecap:round"
       d="m -355.59929,609.60044 -16.93366,16.93269 v 5.9e-4 l 16.93366,16.93268 33.86426,-5.7e-4 2.25729,-2.25763 h -4.51256 l -0.001,10e-4 -29.35071,5.7e-4 -14.67533,-14.67564 v -5.9e-4 l -0.001,-10e-4 9.65759,-9.65758 -0.01,-0.005 7.26896,-7.27045 z m 33.86627,5.9e-4 -4.51555,5.9e-4 2.25626,2.25585 1.84098,1.8411 7.81763,7.81706 0.0137,-0.003 7.271,7.27045 2.24922,-2.24945 z" />
    <path
       id="path30"
       style="opacity:0.5;fill:#2e222f;fill-rule:evenodd;stroke:#2e222f;stroke-width:0;stroke-linecap:round"
       d="m -351.61628,575.72258 -3.972,5.7e-4 -16.93272,16.93241 v 5.9e-4 l 16.93272,16.93125 h 4.51559 l -2.25526,-2.25524 h -0.002 l -14.67643,-14.67542 0.002,-0.002 -10e-4,-5.9e-4 9.65664,-9.65623 -0.01,-0.005 7.26999,-7.27091 z m 29.89545,10e-4 -4.51559,5.9e-4 2.25527,2.25524 h 0.002 l 14.67641,14.67542 -0.001,0.001 v 5.9e-4 l -9.65665,9.65625 0.01,0.006 -7.26999,7.27033 h 4.49942 l 16.93272,-16.933 z" />
    <path
       style="opacity:0.5;fill:#2e222f;fill-rule:evenodd;stroke:#2e222f;stroke-width:0;stroke-linecap:round"
       d="m -355.60668,643.46566 -12.29889,12.29582 -4.62676,4.64177 3.681,3.67889 13.29415,13.24062 h 0.001 l 33.84622,-0.0315 2.22598,-2.22612 h -25.9245 v -5.8e-4 h -7.28617 l -0.61132,5.8e-4 v -5.8e-4 h -0.0444 l -11.59969,-11.59597 -3.07472,-3.06185 0.006,-0.006 -0.008,-0.007 3.77092,-3.76988 5.86148,-5.88168 -0.01,-0.006 7.24575,-7.27146 z"
       id="path59" />
    <path
       id="path66"
       style="opacity:0.5;fill:#2e222f;fill-opacity:1;fill-rule:evenodd;stroke:#2e222f;stroke-width:0;stroke-linecap:round"
       d="m -355.60419,677.32778 -16.93372,16.93205 v 5.9e-4 l 16.93372,16.93088 h 4.51457 l -2.25527,-2.25519 h -0.002 L -368.02226,694.261 v -5.8e-4 l -10e-4,-10e-4 9.65764,-9.65722 -0.01,-0.005 7.268,-7.2696 z m 33.86542,5.9e-4 -4.51458,5.9e-4 2.25527,2.25519 h 0.002 l 9.65866,9.65779 0.0117,-0.003 7.27103,7.27017 2.24921,-2.24935 z" />
    <path
       id="path68"
       style="opacity:0.5;fill:#2e222f;fill-opacity:1;fill-rule:evenodd;stroke:#2e222f;stroke-width:0;stroke-linecap:round"
       d="m -351.0982,711.19101 -4.49741,5.8e-4 -4.88844,4.88726 -12.04326,12.04432 2.25831,2.25754 2.25525,-2.25579 v -5.8e-4 l -9.9e-4,-10e-4 9.65764,-9.65728 -0.01,-0.005 z m 29.36903,10e-4 -4.5156,5.7e-4 2.25627,2.2558 0.004,10e-6 9.65866,9.65727 0.0117,-0.003 7.27103,7.27023 2.2492,-2.24938 z m -2.25729,31.6062 -10e-4,10e-4 -19.31428,5.8e-4 -0.002,0.007 -14.54104,5.8e-4 2.24919,2.24938 33.86444,-5.9e-4 2.25729,-2.25753 h -4.51157 z" />
    <path
       style="opacity:0.5;fill:#2e222f;fill-rule:evenodd;stroke:#2e222f;stroke-width:0;stroke-linecap:round"
       d="m -355.53664,745.06664 -16.93371,16.93344 16.93371,16.93229 h 0.68306 l 3.82851,-0.003 -2.25426,-2.25414 h -0.0456 v -5.9e-4 h -0.0444 l -11.59968,-11.59911 -3.07472,-3.06269 0.006,-0.006 -0.008,-0.007 3.77092,-3.77089 5.86147,-5.88328 -0.01,-0.006 7.24577,-7.27286 z"
       id="path72" />
    <path
       id="path95"
       style="opacity:0.5;fill:#2e222f;fill-opacity:1;fill-rule:evenodd;stroke:#2e222f;stroke-width:0;stroke-linecap:round"
       d="m -186.29821,711.2356 -4.51459,5.9e-4 2.25527,2.25521 h 0.002 l 0.001,10e-4 9.65765,9.65668 0.0117,-0.003 7.27101,7.27024 2.24921,-2.24939 z m -48.54994,14.68222 -2.24921,2.24878 v 5.9e-4 l 9.07463,9.07393 7.85909,7.85765 h 4.51459 l -2.25527,-2.25521 h -0.002 l -9.65965,-9.65902 -0.0117,0.003 z" />
    <path
       style="opacity:0.5;fill:#2e222f;fill-rule:evenodd;stroke:#2e222f;stroke-width:0;stroke-linecap:round"
       d="m -321.74939,812.79936 -29.63344,5.7e-4 -4.23499,0.003 -2.25371,2.25243 4.50384,2.1e-4 0.004,-0.006 h 7.5418 l 11.75565,-0.0113 0.004,-0.008 14.53219,-0.0135 z"
       id="path101" />
    <path
       style="opacity:0.5;fill:#2e222f;fill-rule:evenodd;stroke:#2e222f;stroke-width:0;stroke-linecap:round"
       d="m -319.99999,530.00058 -2.30917,1.6e-4 6.62931,11.4823 -4.5e-4,2.6e-4 2.03088,3.5176 -7.50535,12.99979 -15.01127,1.9e-4 -7.50575,-13.00033 4.93971,-8.55528 -0.006,-0.005 3.71826,-6.44065 -2.30083,1.2e-4 -8.66026,15.00023 8.66019,14.9999 17.32071,1.1e-4 8.66026,-15.00023 z"
       id="path137"
       inkscape:path-effect="#path-effect138"
       inkscape:original-d="m -319.99999,530.00058 -2.30917,1.6e-4 6.62931,11.4823 -4.5e-4,2.6e-4 2.03088,3.5176 -7.50535,12.99979 -15.01127,1.9e-4 -7.50575,-13.00033 4.93971,-8.55528 -0.006,-0.005 3.71826,-6.44065 -2.30083,1.2e-4 -8.66026,15.00023 8.66019,14.9999 17.32071,1.1e-4 8.66026,-15.00023 z"
       transform="matrix(0.97763466,0.97761504,-1.6933129,0.56442631,973.23145,538.62337)" />
    <path
       style="opacity:0.5;fill:#2e222f;fill-rule:evenodd;stroke:#2e222f;stroke-width:0;stroke-linecap:round"
       d="m -319.99999,530.00058 -2.30917,1.6e-4 6.62931,11.4823 -4.5e-4,2.6e-4 2.03088,3.5176 -7.50535,12.99979 -15.01127,1.9e-4 -7.50575,-13.00033 4.93971,-8.55528 -0.006,-0.005 3.71826,-6.44065 -2.30083,1.2e-4 -8.66026,15.00023 8.66019,14.9999 17.32071,1.1e-4 8.66026,-15.00023 z"
       id="path139"
       inkscape:path-effect="#path-effect140"
       inkscape:original-d="m -319.99999,530.00058 -2.30917,1.6e-4 6.62931,11.4823 -4.5e-4,2.6e-4 2.03088,3.5176 -7.50535,12.99979 -15.01127,1.9e-4 -7.50575,-13.00033 4.93971,-8.55528 -0.006,-0.005 3.71826,-6.44065 -2.30083,1.2e-4 -8.66026,15.00023 8.66019,14.9999 17.32071,1.1e-4 8.66026,-15.00023 z"
       transform="matrix(-0.97763464,0.97761504,-1.6933129,-0.5644263,398.34385,1153.8478)" />
    <path
       style="opacity:0.5;fill:#2e222f;fill-rule:evenodd;stroke:#2e222f;stroke-width:0;stroke-linecap:round"
       d="m -319.99999,530.00058 -2.30917,1.6e-4 6.62931,11.4823 -4.5e-4,2.6e-4 2.03088,3.5176 -7.50535,12.99979 -15.01127,1.9e-4 -7.50575,-13.00033 4.93971,-8.55528 -0.006,-0.005 3.71826,-6.44065 -2.30083,1.2e-4 -8.66026,15.00023 8.66019,14.9999 17.32071,1.1e-4 8.66026,-15.00023 z"
       id="path141"
       inkscape:path-effect="#path-effect142"
       inkscape:original-d="m -319.99999,530.00058 -2.30917,1.6e-4 6.62931,11.4823 -4.5e-4,2.6e-4 2.03088,3.5176 -7.50535,12.99979 -15.01127,1.9e-4 -7.50575,-13.00033 4.93971,-8.55528 -0.006,-0.005 3.71826,-6.44065 -2.30083,1.2e-4 -8.66026,15.00023 8.66019,14.9999 17.32071,1.1e-4 8.66026,-15.00023 z"
       transform="matrix(-1.9552693,0,0,-1.1288526,-778.08777,1140.1565)" />
    <path
       style="opacity:0.5;fill:#2e222f;fill-rule:evenodd;stroke:#2e222f;stroke-width:0;stroke-linecap:round"
       d="m -319.99999,530.00058 -2.30917,1.6e-4 6.62931,11.4823 -4.5e-4,2.6e-4 2.03088,3.5176 -7.50535,12.99979 -15.01127,1.9e-4 -7.50575,-13.00033 4.93971,-8.55528 -0.006,-0.005 3.71826,-6.44065 -2.30083,1.2e-4 -8.66026,15.00023 8.66019,14.9999 17.32071,1.1e-4 8.66026,-15.00023 z"
       id="path143"
       transform="matrix(-0.97763471,-0.97761504,1.6933129,-0.56442634,-1311.9002,511.24086)"
       inkscape:original-d="m -319.99999,530.00058 -2.30917,1.6e-4 6.62931,11.4823 -4.5e-4,2.6e-4 2.03088,3.5176 -7.50535,12.99979 -15.01127,1.9e-4 -7.50575,-13.00033 4.93971,-8.55528 -0.006,-0.005 3.71826,-6.44065 -2.30083,1.2e-4 -8.66026,15.00023 8.66019,14.9999 17.32071,1.1e-4 8.66026,-15.00023 z"
       inkscape:path-effect="#path-effect144" />
    <path
       style="opacity:0.5;fill:#2e222f;fill-rule:evenodd;stroke:#2e222f;stroke-width:0;stroke-linecap:round"
       d="m -319.99999,530.00058 -2.30917,1.6e-4 6.62931,11.4823 -4.5e-4,2.6e-4 2.03088,3.5176 -7.50535,12.99979 -15.01127,1.9e-4 -7.50575,-13.00033 4.93971,-8.55528 -0.006,-0.005 3.71826,-6.44065 -2.30083,1.2e-4 -8.66026,15.00023 8.66019,14.9999 17.32071,1.1e-4 8.66026,-15.00023 z"
       id="path145"
       inkscape:path-effect="#path-effect146"
       inkscape:original-d="m -319.99999,530.00058 -2.30917,1.6e-4 6.62931,11.4823 -4.5e-4,2.6e-4 2.03088,3.5176 -7.50535,12.99979 -15.01127,1.9e-4 -7.50575,-13.00033 4.93971,-8.55528 -0.006,-0.005 3.71826,-6.44065 -2.30083,1.2e-4 -8.66026,15.00023 8.66019,14.9999 17.32071,1.1e-4 8.66026,-15.00023 z"
       transform="matrix(0.97763461,-0.9776151,1.693313,0.56442629,-601.54766,-103.98361)" />
    <path
       style="opacity:0.5;fill:#2e222f;fill-rule:evenodd;stroke:#2e222f;stroke-width:0;stroke-linecap:round"
       d="m -254.02331,541.86662 -33.86612,0.0312 -8.6e-4,2.9e-4 -16.88496,16.92667 16.98061,16.895 33.86513,-0.0323 2.25006,-2.25679 -4.51417,0.005 -3.7e-4,8e-4 -29.35057,0.0273 -14.7174,-14.642 10e-4,-10e-4 1.43531,-1.43845 13.19818,-13.23164 19.31583,-0.0176 0.004,-0.008 14.54081,-0.0139 z"
       id="path147" />
    <path
       style="opacity:0.5;fill:#2e222f;fill-rule:evenodd;stroke:#2e222f;stroke-width:0;stroke-linecap:round"
       d="m -169.32146,558.76492 -16.97996,-16.89504 -8.8e-4,-2.7e-4 -33.86613,0.032 -16.88579,16.92657 16.981,16.89403 4.5147,-0.005 -2.26386,-2.25184 -10e-4,2.1e-4 -14.71626,-14.64221 14.63341,-14.66996 0.002,5e-5 2.87818,-0.003 26.47286,-0.0255 9.68433,9.63634 0.0134,-0.002 7.29123,7.25385 z"
       id="path149" />
    <path
       style="opacity:0.5;fill:#2e222f;fill-rule:evenodd;stroke:#2e222f;stroke-width:0;stroke-linecap:round"
       d="m -118.48932,575.71342 16.88617,-16.92627 -2e-5,-5.7e-4 -16.98118,-16.89464 -33.86639,0.0316 -16.88413,16.92627 2.26464,2.25194 2.25031,-2.25636 -0.001,-5.8e-4 14.63431,-14.6695 29.3508,-0.028 10e-4,0.001 1.44287,1.43593 13.27468,13.20618 -9.6315,9.65392 0.01,0.006 -7.24958,7.26771 z"
       id="path151" />
    <g
       id="g153"
       transform="matrix(-0.97764645,-0.97635229,1.6933333,-0.56369727,-1390.7385,579.152)">
      <path
         style="opacity:0.5;fill:#2e222f;fill-rule:evenodd;stroke:#2e222f;stroke-width:0;stroke-linecap:round"
         d="m -331.36388,580.00388 -8.63613,15.01361 10e-6,5.1e-4 8.68472,14.98556 17.32037,-0.028 8.63509,-15.01362 -1.15821,-1.99747 -1.15088,2.00139 5.2e-4,5.2e-4 -7.48446,13.01186 -15.01095,0.0248 -5.2e-4,-9.9e-4 -0.73793,-1.27367 -6.7891,-11.71389 4.92586,-8.56304 -0.005,-0.005 3.70767,-6.44647 z"
         id="path153" />
    </g>
    <path
       style="opacity:0.5;fill:#2e222f;fill-rule:evenodd;stroke:#2e222f;stroke-width:0;stroke-linecap:round"
       d="m -33.90182,558.82617 16.979964,16.89504 8.73e-4,2.8e-4 33.866134,-0.032 16.885784,-16.92657 -16.980998,-16.89402 -4.514702,0.005 2.263867,2.25184 0.0014,-2.1e-4 14.71626,14.64222 -14.633407,14.66995 -0.0022,-5e-5 -2.878182,0.003 -26.47286,0.0255 -9.684331,-9.63633 -0.01336,0.002 -7.291232,-7.25385 z"
       id="path155" />
    <path
       id="path157"
       style="opacity:0.5;fill:#2e222f;fill-rule:evenodd;stroke:#2e222f;stroke-width:0;stroke-linecap:round"
       d="m -252.00242,577.70849 -1.98686,-1.98566 -33.86568,8e-5 -8.8e-4,3e-4 -16.93122,16.93175 2.25779,2.25773 2.25534,-2.25522 -9.8e-4,-9.8e-4 14.67552,-14.67572 0.004,-1.5e-4 3.7e-4,-8e-4 19.31308,7e-5 0.002,-0.007 14.54167,-5.7e-4 z m 14.94603,14.94787 -2.25867,-2.25744 -2.25532,2.25523 9.7e-4,9.8e-4 -14.67553,14.67571 -0.002,6e-5 -8.8e-4,2.9e-4 -19.3131,-6e-5 -0.004,0.008 -14.54079,2.6e-4 2.24971,2.24965 33.86657,-3.7e-4 z" />
    <path
       id="path159"
       style="opacity:0.5;fill:#2e222f;fill-rule:evenodd;stroke:#2e222f;stroke-width:0;stroke-linecap:round"
       d="m -171.30734,594.64138 1.98514,-1.98623 -16.93296,-16.93233 -8.9e-4,-3e-4 -33.86393,5e-4 -2.2578,2.25774 4.51059,2e-5 9.7e-4,-9.7e-4 29.35196,-3.1e-4 0.002,0.002 0.001,-2.1e-4 9.65643,9.6563 0.0117,-0.003 7.27168,7.27036 z m -14.94942,14.94675 2.25692,-2.25803 -4.5106,-2e-5 -9.7e-4,9.8e-4 -29.35195,2.9e-4 -0.001,-0.001 -8.8e-4,-2.9e-4 -9.65645,-9.65631 -0.0134,0.002 -7.2708,-7.27006 -2.24971,2.24965 16.93384,16.93262 z" />
    <path
       id="path161"
       style="opacity:0.5;fill:#2e222f;fill-rule:evenodd;stroke:#2e222f;stroke-width:0;stroke-linecap:round"
       d="m -254.00027,609.60049 -33.86604,-4.2e-4 -8.9e-4,2.9e-4 -16.93238,16.93312 16.93299,16.93172 4.51512,-1.8e-4 -2.25628,-2.25626 -0.002,5e-5 -14.67622,-14.67496 14.67596,-14.67544 8.8e-4,-2.9e-4 10e-4,-10e-4 19.31527,-3e-5 0.002,-0.007 14.54023,-7.7e-4 z m 16.93225,16.93331 -2.25866,-2.25746 -2.25567,2.25605 -1.84118,1.84103 -7.81685,7.81732 0.0119,0.005 -7.27024,7.27069 4.4988,-1.1e-4 z" />
    <path
       id="path163"
       style="opacity:0.5;fill:#2e222f;fill-rule:evenodd;stroke:#2e222f;stroke-width:0;stroke-linecap:round"
       d="m -169.3337,626.53345 -16.93238,-16.93312 -8.8e-4,-2.9e-4 -33.86604,4.2e-4 -16.93126,16.9323 2.25781,2.25745 2.25628,-2.25626 -0.001,-10e-4 14.67449,-14.67554 29.35129,2.1e-4 8.8e-4,2.9e-4 0.002,6e-5 9.65768,9.65755 0.0117,-0.003 7.27126,7.26968 z m -16.93401,16.93272 2.25689,-2.25806 -4.51193,2e-4 -3.68216,-7e-5 -15.63449,2.6e-4 -0.002,0.009 -14.54125,2.5e-4 2.24958,2.24933 z" />
    <path
       id="path165"
       style="opacity:0.5;fill:#2e222f;fill-rule:evenodd;stroke:#2e222f;stroke-width:0;stroke-linecap:round"
       d="m -118.53363,643.46616 16.93366,-16.93269 v -5.8e-4 l -16.93366,-16.93269 -33.86426,5.8e-4 -2.25729,2.25762 h 4.51256 l 0.001,-10e-4 29.35071,-5.7e-4 14.67533,14.67564 v 5.9e-4 l 10e-4,10e-4 -9.65759,9.65758 0.01,0.005 -7.26896,7.27045 z m -33.86627,-5.9e-4 4.51555,-5.8e-4 -2.25626,-2.25586 -1.84098,-1.84109 -7.81763,-7.81706 -0.0137,0.003 -7.271,-7.27044 -2.24922,2.24944 z" />
    <path
       id="path167"
       style="opacity:0.5;fill:#2e222f;fill-rule:evenodd;stroke:#2e222f;stroke-width:0;stroke-linecap:round"
       d="m -84.666027,643.46601 33.866041,4.2e-4 8.81e-4,-2.9e-4 16.93238,-16.93312 -16.93299,-16.93172 -4.515114,1.8e-4 2.256281,2.25626 0.0022,-5e-5 14.676221,14.67496 -14.675962,14.67544 -8.81e-4,2.9e-4 -0.0012,10e-4 -19.31527,3e-5 -0.0019,0.007 -14.54023,7.7e-4 z m -16.932253,-16.93331 2.258657,2.25746 2.255676,-2.25605 1.841173,-1.84103 7.816854,-7.81732 -0.01192,-0.005 7.270248,-7.27069 -4.4988,1.1e-4 z" />
    <path
       id="path169"
       style="opacity:0.5;fill:#2e222f;fill-rule:evenodd;stroke:#2e222f;stroke-width:0;stroke-linecap:round"
       d="m -33.865901,626.53312 16.93238,16.93312 8.8e-4,2.9e-4 33.866043,-4.3e-4 16.931263,-16.93229 -2.257817,-2.25746 -2.256281,2.25627 0.0012,0.001 -14.674493,14.67554 -29.351291,-2.1e-4 -8.8e-4,-2.9e-4 -0.0022,-6e-5 -9.657671,-9.65755 -0.01166,0.003 -7.271264,-7.26968 z m 16.934014,-16.93272 -2.256896,2.25805 4.511938,-1.9e-4 3.682151,6e-5 15.634491,-2.6e-4 0.00176,-0.009 14.541247,-2.5e-4 -2.249578,-2.24933 z" />
    <path
       style="opacity:0.5;fill:#2e222f;fill-rule:evenodd;stroke:#2e222f;stroke-width:0;stroke-linecap:round"
       d="m -254.00279,643.46183 -24.59821,1.4e-4 -9.27792,0.008 -3.67934,3.67944 -13.21928,13.26558 5.1e-4,5.1e-4 16.97035,16.90275 4.45308,-3.7e-4 -12.96226,-12.95872 8.8e-4,-2.9e-4 -3.64308,-3.64209 -0.30654,-0.30529 8.8e-4,-2.9e-4 -0.0222,-0.0222 11.59885,-11.59625 3.05667,-3.06786 0.0114,1.1e-4 0.006,-0.007 7.54181,1e-5 11.75567,-0.0109 0.004,-0.008 14.53304,-0.0138 z"
       id="path171" />
    <path
       style="opacity:0.5;fill:#2e222f;fill-rule:evenodd;stroke:#2e222f;stroke-width:0;stroke-linecap:round"
       d="m -169.33134,660.39345 -12.29932,-12.29568 -4.65117,-4.63363 -7.36034,5.5e-4 -26.51343,0.0249 -5.1e-4,5.1e-4 -16.87586,16.93424 2.22709,2.22575 12.96225,-12.95872 8.8e-4,2.9e-4 3.64308,-3.64209 0.30478,-0.30587 8.8e-4,3e-4 0.0222,-0.0222 23.19854,-2.8e-4 6.13139,-0.006 0.006,0.006 0.0141,-5.3e-4 3.7709,3.76989 5.89419,5.87078 0.0134,-0.002 7.28729,7.25762 z"
       id="path173" />
    <path
       style="opacity:0.5;fill:#2e222f;fill-rule:evenodd;stroke:#2e222f;stroke-width:0;stroke-linecap:round"
       d="m -118.53084,677.32541 12.29889,-12.29582 4.62676,-4.64176 -3.681,-3.6789 -13.29415,-13.24062 h -10e-4 l -33.84622,0.0315 -2.22598,2.22612 h 25.9245 v 5.9e-4 h 7.28617 l 0.61132,-5.9e-4 v 5.9e-4 h 0.0444 l 11.59969,11.59596 3.07472,3.06186 -0.006,0.006 0.008,0.007 -3.77092,3.76988 -5.86148,5.88168 0.01,0.006 -7.24575,7.27146 z"
       id="path175" />
    <path
       style="opacity:0.5;fill:#2e222f;fill-rule:evenodd;stroke:#2e222f;stroke-width:0;stroke-linecap:round"
       d="m -84.661815,677.32695 24.59821,-1.4e-4 9.27792,-0.008 3.679346,-3.67944 13.219278,-13.26558 -5.08e-4,-5.1e-4 -16.970353,-16.90275 -4.453075,3.7e-4 12.962253,12.95872 -8.81e-4,2.9e-4 3.643082,3.64209 0.306542,0.30529 -8.8e-4,2.9e-4 0.02219,0.0222 -11.598846,11.59625 -3.056672,3.06786 -0.0114,-1.1e-4 -0.0063,0.007 -7.541819,-10e-6 -11.755665,0.0109 -0.0036,0.008 -14.533038,0.0138 z"
       id="path177" />
    <path
       style="opacity:0.5;fill:#2e222f;fill-rule:evenodd;stroke:#2e222f;stroke-width:0;stroke-linecap:round"
       d="m -33.866662,660.39918 12.299319,12.29568 4.651169,4.63362 7.3603412,-5.5e-4 26.5134328,-0.0249 5.08e-4,-5.1e-4 16.875864,-16.93424 -2.227091,-2.22574 -12.962252,12.95872 -8.81e-4,-3e-4 -3.643082,3.64209 -0.30478,0.30587 -8.81e-4,-2.9e-4 -0.02219,0.0222 -23.1985436,2.8e-4 -6.1313894,0.006 -0.0055,-0.006 -0.01407,5.2e-4 -3.7709,-3.76988 -5.894185,-5.87078 -0.01335,0.002 -7.28729,-7.25761 z"
       id="path179" />
    <path
       id="path181"
       style="opacity:0.5;fill:#2e222f;fill-opacity:1;fill-rule:evenodd;stroke:#2e222f;stroke-width:0;stroke-linecap:round"
       d="m -254.00665,677.32724 -33.86618,-4.2e-4 -8.8e-4,2.9e-4 -16.93072,16.93188 2.25729,2.25718 2.25532,-2.25518 -9.8e-4,-9.8e-4 14.67603,-14.67489 8.8e-4,-2.9e-4 10e-4,-10e-4 19.31535,-2e-5 0.002,-0.007 14.53893,-9.7e-4 z m 16.93183,16.93216 -2.25817,-2.25688 -2.25532,2.25518 9.8e-4,9.8e-4 -9.65807,9.65798 0.0109,0.004 -7.27028,7.27043 4.49881,-1.3e-4 z" />
    <path
       id="path183"
       style="opacity:0.5;fill:#2e222f;fill-opacity:1;fill-rule:evenodd;stroke:#2e222f;stroke-width:0;stroke-linecap:round"
       d="m -169.34028,694.2583 -16.93247,-16.93246 -8.8e-4,-3e-4 -33.86444,10e-4 -2.25728,2.25718 4.51059,2e-5 9.8e-4,-9.8e-4 29.35144,2.1e-4 8.8e-4,2.9e-4 0.002,5e-5 9.65771,9.65719 0.0117,-0.003 7.27093,7.26862 z m -16.93359,16.93158 2.2564,-2.25747 -4.51059,-10e-6 -9.8e-4,9.7e-4 -19.31673,2e-4 -7.8e-4,0.008 -14.54131,2.5e-4 2.2496,2.24923 z" />
    <path
       id="path185"
       style="opacity:0.5;fill:#2e222f;fill-opacity:1;fill-rule:evenodd;stroke:#2e222f;stroke-width:0;stroke-linecap:round"
       d="m -118.53891,711.19046 16.93372,-16.93205 v -5.8e-4 l -16.93372,-16.93089 h -4.51457 l 2.25527,2.2552 h 0.002 l 14.67541,14.6751 v 5.9e-4 l 0.001,10e-4 -9.65764,9.65721 0.01,0.005 -7.268,7.2696 z m -33.86542,-5.9e-4 4.51458,-5.8e-4 -2.25527,-2.2552 h -0.002 l -9.65866,-9.65779 -0.0117,0.003 -7.27103,-7.27017 -2.24921,2.24936 z" />
    <path
       id="path187"
       style="opacity:0.5;fill:#2e222f;fill-opacity:1;fill-rule:evenodd;stroke:#2e222f;stroke-width:0;stroke-linecap:round"
       d="m -84.669848,711.18947 33.86618,4.2e-4 8.81e-4,-2.9e-4 16.930719,-16.93188 -2.257287,-2.25718 -2.255322,2.25518 9.78e-4,9.8e-4 -14.676033,14.67489 -8.81e-4,2.9e-4 -0.0012,10e-4 -19.315355,2e-5 -0.0019,0.007 -14.538931,9.7e-4 z m -16.931832,-16.93216 2.258171,2.25688 2.255321,-2.25518 -9.77e-4,-9.8e-4 9.658068,-9.65798 -0.01095,-0.004 7.270279,-7.27043 -4.49881,1.3e-4 z" />
    <path
       id="path189"
       style="opacity:0.5;fill:#2e222f;fill-opacity:1;fill-rule:evenodd;stroke:#2e222f;stroke-width:0;stroke-linecap:round"
       d="m -33.868895,694.25932 16.932464,16.93246 8.81e-4,3e-4 33.864436,-10e-4 2.257288,-2.25718 -4.510596,-10e-6 -9.77e-4,9.7e-4 -29.351445,-2e-4 -8.81e-4,-3e-4 -0.0022,-5e-5 -9.657713,-9.65719 -0.01166,0.003 -7.270931,-7.26862 z m 16.93359,-16.93158 -2.256408,2.25747 4.510595,2e-5 9.78e-4,-9.8e-4 19.3167267,-2e-4 7.859e-4,-0.008 14.5413094,-2.5e-4 -2.249597,-2.24923 z" />
    <path
       id="path191"
       style="opacity:0.5;fill:#2e222f;fill-opacity:1;fill-rule:evenodd;stroke:#2e222f;stroke-width:0;stroke-linecap:round"
       d="m -251.75062,713.45045 -2.24956,-2.24832 -9.77543,-4.9e-4 -24.08888,7.9e-4 -2.25729,2.25787 4.51144,-3.1e-4 8.7e-4,-2.9e-4 10e-4,-10e-4 19.31536,-2e-5 0.002,-0.007 z m 14.68282,14.68445 -2.25866,-2.25741 -2.2557,2.25599 0.002,0.002 -9.65719,9.65776 0.011,0.004 -7.2703,7.27047 4.49882,-1.4e-4 z m -48.53995,14.67451 -0.002,5e-5 -9.65802,-9.65643 -0.0111,0.002 -7.2714,-7.26992 -2.2496,2.24923 16.93309,16.93121 4.51509,-1.7e-4 -2.25578,-2.25569 z" />
    <path
       id="path193"
       style="opacity:0.5;fill:#2e222f;fill-opacity:1;fill-rule:evenodd;stroke:#2e222f;stroke-width:0;stroke-linecap:round"
       d="m -101.59884,728.1225 -2.25818,-2.25691 -2.25532,2.25519 9.7e-4,9.8e-4 -0.001,10e-4 -9.65681,9.65696 0.011,0.004 -7.2703,7.27047 4.49883,-1.3e-4 z m -46.29923,-16.93284 -4.49793,-1.6e-4 -8.8e-4,2.9e-4 -9.07416,9.07409 -7.85742,7.8582 2.25729,2.2572 2.25532,-2.25519 -9.7e-4,-9.8e-4 9.65931,-9.65913 -0.0109,-0.004 z" />
    <path
       id="path195"
       style="opacity:0.5;fill:#2e222f;fill-opacity:1;fill-rule:evenodd;stroke:#2e222f;stroke-width:0;stroke-linecap:round"
       d="m -50.804614,745.05576 2.256417,-2.2575 -4.510595,-2e-5 -9.78e-4,9.8e-4 -0.0022,-5e-5 -19.314457,2.7e-4 -7.86e-4,0.008 -14.541316,2.4e-4 2.249614,2.24925 z m 2.250716,-31.61505 -2.248717,-2.24895 -8.81e-4,-3e-4 -18.148786,1.6e-4 -15.716513,5.5e-4 -2.257298,2.25721 4.510595,10e-6 9.78e-4,-9.8e-4 19.318969,-1.1e-4 7.86e-4,-0.008 z" />
    <path
       style="opacity:0.5;fill:#2e222f;fill-rule:evenodd;stroke:#2e222f;stroke-width:0;stroke-linecap:round"
       d="m -33.835003,761.96825 16.933345,16.93357 33.865316,-7.1e-4 0.341531,-0.34153 1.909172,-1.91594 -4.508343,6e-5 -0.02278,0.0228 -8.81e-4,-2.9e-4 -0.02219,0.0222 -23.1985339,2.7e-4 -6.1314061,0.006 -0.0055,-0.006 -0.01407,5.2e-4 -3.770883,-3.7709 -5.894186,-5.87237 -0.01336,0.002 -7.286415,-7.25931 z"
       id="path197" />
    <path
       style="opacity:0.5;fill:#2e222f;fill-rule:evenodd;stroke:#2e222f;stroke-width:0;stroke-linecap:round"
       d="m -84.698375,778.90156 33.867061,1.2e-4 16.9316,-16.93298 -0.341531,-0.34153 -1.919331,-1.91256 -2.254086,2.2542 0.02278,0.0228 -8.81e-4,2.9e-4 0.02219,0.0222 -11.598857,11.59939 -3.056688,3.0687 -0.0114,-1.1e-4 -0.0062,0.007 -7.541802,-10e-6 -11.755665,0.0109 -0.0036,0.008 -14.532184,0.0136 z"
       id="path199" />
    <path
       style="opacity:0.5;fill:#2e222f;fill-rule:evenodd;stroke:#2e222f;stroke-width:0;stroke-linecap:round"
       d="m -118.59662,778.93319 16.93371,-16.93344 -16.93371,-16.93228 h -0.68306 l -3.82851,0.003 2.25426,2.25414 h 0.0456 v 5.9e-4 h 0.0444 l 11.59968,11.59911 3.07472,3.0627 -0.006,0.006 0.008,0.007 -3.77092,3.77089 -5.86147,5.88327 0.01,0.006 -7.24577,7.27286 z"
       id="path201" />
    <path
       style="opacity:0.5;fill:#2e222f;fill-rule:evenodd;stroke:#2e222f;stroke-width:0;stroke-linecap:round"
       d="m -169.36498,762.03164 -16.93334,-16.93357 -33.86532,7e-4 -0.34153,0.34154 -1.90917,1.91594 4.50834,-6e-5 0.0228,-0.0228 8.8e-4,2.9e-4 0.0222,-0.0222 23.19854,-2.7e-4 6.1314,-0.006 0.006,0.006 0.0141,-5.2e-4 3.77088,3.7709 5.89419,5.87237 0.0134,-0.002 7.28642,7.2593 z"
       id="path203" />
    <path
       style="opacity:0.5;fill:#2e222f;fill-rule:evenodd;stroke:#2e222f;stroke-width:0;stroke-linecap:round"
       d="m -253.96832,745.09829 -33.86707,-1.2e-4 -16.9316,16.93298 0.34153,0.34153 1.91934,1.91256 2.25408,-2.2542 -0.0228,-0.0228 8.8e-4,-2.9e-4 -0.0222,-0.0222 11.59886,-11.59939 3.05668,-3.0687 0.0114,1.1e-4 0.006,-0.007 7.54181,10e-6 11.75566,-0.0109 0.004,-0.008 14.53218,-0.0136 z"
       id="path205" />
    <path
       id="path215"
       style="opacity:0.5;fill:#2e222f;fill-rule:evenodd;stroke:#2e222f;stroke-width:0;stroke-linecap:round"
       d="m -33.869502,795.86633 14.817577,14.81374 2.123184,2.11521 4.506954,1.6e-4 -2.251587,-2.25162 -0.0097,6.8e-4 -3.770893,-3.77022 -5.894185,-5.87131 -0.01336,0.002 -7.286416,-7.258 z m 53.55912,9.65539 0.01257,0.005 -7.252962,7.25282 4.501967,-0.004 5.08e-4,-5.1e-4 16.875865,-16.93578 -2.227101,-2.22594 -2.251735,2.25132 3.82e-4,8e-4 z" />
    <path
       style="opacity:0.5;fill:#2e222f;fill-rule:evenodd;stroke:#2e222f;stroke-width:0;stroke-linecap:round"
       d="m -237.08482,829.71761 -14.81757,-14.80997 -2.12257,-2.11488 -4.50697,-1.5e-4 2.2516,2.25105 0.0104,-8.7e-4 3.7709,3.76925 5.89476,5.86962 0.0138,-0.002 7.28641,7.25615 z"
       id="path217" />
    <path
       style="opacity:0.5;fill:#2e222f;fill-rule:evenodd;stroke:#2e222f;stroke-width:0;stroke-linecap:round"
       d="m -186.2632,846.63864 14.81588,-14.81053 2.11241,-2.11826 -2.25326,-2.25257 -2.25224,2.25083 0.007,0.005 -3.7709,3.76926 -5.86089,5.88089 0.01,0.006 -7.24578,7.26969 z"
       id="path219" />
    <path
       style="opacity:0.5;fill:#2e222f;fill-rule:evenodd;stroke:#2e222f;stroke-width:0;stroke-linecap:round"
       d="m -152.37837,846.64695 29.63344,-5.7e-4 4.23499,-0.003 2.25371,-2.25243 -4.50384,-2.1e-4 -0.004,0.006 h -7.5418 l -11.75565,0.0113 -0.004,0.008 -14.53219,0.0135 z"
       id="path221" />
    <path
       style="opacity:0.5;fill:#2e222f;fill-rule:evenodd;stroke:#2e222f;stroke-width:0;stroke-linecap:round"
       d="m -101.57621,829.72869 14.817569,14.80997 2.122574,2.11488 4.506969,1.5e-4 -2.251599,-2.25105 -0.01042,8.7e-4 -3.7709,-3.76925 -5.894759,-5.86962 -0.01381,0.002 -7.286414,-7.25615 z"
       id="path223" />
    <path
       style="opacity:0.5;fill:#2e222f;fill-rule:evenodd;stroke:#2e222f;stroke-width:0;stroke-linecap:round"
       d="m -16.925682,812.8021 -14.815874,14.81053 -2.112414,2.11826 2.253259,2.25257 2.252242,-2.25083 -0.0065,-0.005 3.770899,-3.76926 5.860892,-5.88089 -0.0099,-0.006 7.245773,-7.26969 z"
       id="path225" />
    <path
       id="path26"
       style="opacity:0.5;fill:#2e222f;fill-rule:evenodd;stroke:#2e222f;stroke-width:0;stroke-linecap:round"
       d="m -237.03043,795.86238 14.81758,-14.81374 2.12318,-2.11521 4.50696,-1.6e-4 -2.25159,2.25162 -0.01,-6.8e-4 -3.77089,3.77022 -5.89419,5.87131 -0.0134,-0.002 -7.28641,7.258 z m 53.55912,-9.65539 0.0126,-0.005 -7.25296,-7.25282 4.50197,0.004 5.1e-4,5.1e-4 16.87586,16.93578 -2.2271,2.22594 -2.25174,-2.25132 3.9e-4,-8e-4 z" />
    <path
       id="path28"
       style="opacity:0.5;fill:#2e222f;fill-rule:evenodd;stroke:#2e222f;stroke-width:0;stroke-linecap:round"
       d="m -50.818604,778.94832 -4.452958,5.2e-4 12.961483,12.9589 3.643189,3.64215 0.306441,0.30541 -10e-4,5.1e-4 0.02222,0.0222 -0.0072,0.007 2.230872,2.23035 2.248958,-2.24947 -8.466666,-8.46615 z m -2.175577,31.5929 -5.17e-4,5.2e-4 h -0.01137 l -0.0062,0.007 h -7.542175 l -11.755355,0.0109 -0.0036,0.008 -14.532963,0.014 2.21847,2.21795 31.362426,-5.1e-4 2.466517,-0.002 2.255159,-2.25568 z" />
    <path
       id="path35"
       style="opacity:0.5;fill:#2e222f;fill-rule:evenodd;stroke:#2e222f;stroke-width:0;stroke-linecap:round"
       d="m -355.58132,778.93327 4.45296,5.2e-4 -12.96148,12.9589 -3.64319,3.64215 -0.30644,0.30541 10e-4,5.1e-4 -0.0222,0.0222 0.007,0.007 -2.23087,2.23035 -2.24896,-2.24947 8.46666,-8.46615 z m 2.17558,31.5929 5.2e-4,5.2e-4 h 0.0114 l 0.006,0.007 h 7.54217 l 11.75536,0.0109 0.004,0.008 14.53296,0.014 -2.21847,2.21795 -31.36243,-5.1e-4 -2.46651,-0.002 -2.25516,-2.25568 z" />
    <path
       id="path36"
       style="opacity:0.5;fill:#2e222f;fill-rule:evenodd;stroke:#2e222f;stroke-width:0;stroke-linecap:round"
       d="m -287.84724,812.78203 4.45296,-5.2e-4 -12.96148,-12.9589 -3.64319,-3.64215 -0.30644,-0.30541 10e-4,-5.1e-4 -0.0222,-0.0222 0.007,-0.007 -2.23087,-2.23035 -2.24896,2.24947 8.46666,8.46615 z m 2.17558,-31.5929 5.2e-4,-5.2e-4 h 0.0114 l 0.006,-0.007 h 7.54217 l 11.75536,-0.0109 0.004,-0.008 14.53296,-0.014 -2.21847,-2.21795 -31.36243,5.1e-4 -2.46651,0.002 -2.25516,2.25568 z" />
    <path
       id="path37"
       style="opacity:0.5;fill:#2e222f;fill-rule:evenodd;stroke:#2e222f;stroke-width:0;stroke-linecap:round"
       d="m -118.55218,812.78469 -4.45296,-5.2e-4 12.96148,-12.9589 3.64319,-3.64215 0.30644,-0.30541 -10e-4,-5.1e-4 0.0222,-0.0222 -0.007,-0.007 2.23087,-2.23035 2.24896,2.24947 -8.46666,8.46615 z m -2.17558,-31.5929 -5.2e-4,-5.2e-4 h -0.0114 l -0.006,-0.007 h -7.54217 l -11.75536,-0.0109 -0.004,-0.008 -14.53296,-0.014 2.21847,-2.21795 31.36243,5.1e-4 2.46651,0.002 2.25516,2.25568 z" />
  </g>
</svg>
